# xmcd CD database file
#
# Track frame offsets:
#	150
#	45935
#	91912
#	138285
#	182262
#	228582
#
# Disc length: 3606 seconds
#
# Revision: 0
# Processed by: cddbd v1.5.1PL0 Copyright (c) Steve Scherf et al.
# Submitted via: CDex 1.51
#
DISCID=3c0e1406
DTITLE=The Eternal Dream - The Eternal Dream - New Age Musical Interpretations of the Ancient Myth of Avalon
DYEAR=1995
DGENRE=New Age
TTITLE0=Mystic Forest
TTITLE1=Fields of Feys
TTITLE2=Vision Tree
TTITLE3=The Majesty
TTITLE4=The Hawk's Song
TTITLE5=The Eternal Dream of Avalon
EXTD=YEAR: 1995
EXTT0=
EXTT1=
EXTT2=
EXTT3=
EXTT4=
EXTT5=
PLAYORDER=
